<?xml version="1.0" standalone="no"?>
<!DOCTYPE svg PUBLIC "-//W3C//DTD SVG 20010904//EN"
 "http://www.w3.org/TR/2001/REC-SVG-20010904/DTD/svg10.dtd">
<svg version="1.0" xmlns="http://www.w3.org/2000/svg"
 width="1280.000000pt" height="896.000000pt" viewBox="0 0 1280.000000 896.000000"
 preserveAspectRatio="xMidYMid meet">

<g transform="translate(0.000000,896.000000) scale(0.100000,-0.100000)"
fill="#000000" stroke="none">
<path d="M0 8285 l0 -675 28 0 c49 0 131 -30 166 -60 38 -34 60 -37 83 -14 22
22 65 14 81 -16 14 -27 12 -206 -8 -555 -5 -99 -12 -241 -15 -315 -3 -74 -9
-180 -15 -235 -5 -55 -10 -131 -10 -170 0 -38 -5 -77 -10 -85 -8 -12 -10 -12
-11 5 0 11 -2 38 -4 60 -6 69 -14 243 -20 460 -4 116 -9 217 -12 225 -3 8 -5
25 -4 36 3 33 -26 38 -33 6 -5 -24 -20 -345 -42 -949 -7 -191 -7 -193 14 -193
11 0 33 5 48 10 14 6 65 14 113 19 47 5 98 15 113 22 l27 12 0 161 c0 89 5
183 11 209 6 27 10 117 10 200 -1 135 1 158 20 202 22 52 40 68 78 72 12 1 51
13 86 27 36 14 73 26 84 26 26 0 49 28 54 68 8 60 -13 62 -205 20 -41 -9 -51
-8 -68 8 -42 38 -49 98 -43 363 l6 246 30 48 c32 50 40 53 85 36 15 -5 84 -17
153 -25 69 -9 170 -27 225 -41 55 -14 132 -29 170 -33 479 -55 795 -129 873
-207 8 -7 28 -21 45 -30 18 -8 40 -24 50 -34 17 -18 17 -19 -5 -28 -13 -5 -44
-15 -70 -21 -37 -10 -48 -17 -48 -32 0 -11 5 -16 10 -13 6 4 10 3 9 -2 -6 -26
17 -61 57 -85 53 -33 80 -75 89 -139 4 -26 13 -53 20 -59 7 -6 45 -14 83 -17
l69 -6 8 29 c4 16 9 98 11 182 2 84 6 157 9 162 8 14 28 12 48 -2 15 -11 18
-38 21 -203 3 -110 9 -204 16 -223 8 -22 11 -98 9 -242 -3 -168 -1 -211 9
-215 42 -16 202 13 234 42 17 15 18 44 18 401 0 426 1 431 66 452 33 11 184
-7 294 -34 30 -8 96 -22 145 -31 50 -9 97 -22 105 -29 35 -30 68 -38 188 -42
80 -3 155 -12 204 -24 45 -12 110 -20 157 -20 44 0 124 -9 178 -19 54 -11 143
-25 197 -31 55 -6 109 -15 120 -20 12 -4 50 -11 86 -15 96 -10 134 -22 161
-51 21 -22 30 -25 66 -20 33 4 48 1 80 -20 21 -15 39 -28 41 -29 7 -6 8 -205
2 -207 -12 -5 -22 -408 -10 -408 5 0 10 -13 10 -29 0 -29 -1 -29 -72 -36 -127
-13 -199 -29 -235 -52 -16 -10 -74 -59 -131 -110 -56 -51 -115 -100 -130 -109
-15 -9 -48 -42 -74 -73 -26 -31 -76 -91 -113 -134 -74 -89 -86 -109 -109 -192
-10 -33 -26 -89 -36 -125 -17 -59 -50 -188 -50 -194 0 -2 -46 -6 -102 -10 -57
-4 -128 -11 -158 -16 -30 -6 -118 -14 -195 -19 l-140 -10 -26 25 c-19 18 -28
22 -31 13 -8 -25 40 -323 57 -345 9 -14 13 -7 24 39 l12 54 42 0 c137 1 152 3
162 26 14 32 49 33 69 3 13 -21 25 -26 56 -26 39 0 43 3 80 52 11 14 35 30 53
33 17 4 37 11 43 16 19 16 12 -334 -9 -405 -14 -50 -15 -70 -6 -120 9 -56 8
-66 -15 -119 -40 -88 -48 -140 -36 -206 7 -35 8 -65 2 -80 -8 -23 -14 -24
-103 -27 -52 -2 -119 -5 -149 -9 l-56 -6 -29 47 c-22 35 -31 43 -33 30 -8 -37
35 -332 55 -386 8 -22 31 46 32 95 1 22 5 46 9 53 11 16 122 39 187 38 l50 -1
-3 -140 c-7 -385 -14 -623 -18 -647 -5 -25 -10 -28 -45 -28 -35 0 -46 6 -86
48 l-45 47 7 -85 c4 -46 13 -100 20 -120 l12 -35 12 40 c16 59 32 76 79 82 64
9 69 -1 76 -135 7 -128 25 -240 63 -375 13 -49 21 -97 18 -107 -3 -10 -28 -30
-54 -44 -46 -23 -50 -24 -64 -8 -44 49 -59 191 -32 302 l18 73 -24 18 c-13 10
-36 28 -51 39 l-28 22 0 -32 c0 -44 38 -351 55 -441 8 -42 21 -134 30 -205 19
-159 33 -232 51 -259 7 -11 18 -51 24 -89 6 -38 13 -73 15 -77 3 -4 10 -54 15
-111 6 -56 15 -119 20 -139 6 -19 14 -64 19 -100 12 -85 -3 -120 -61 -150 -42
-22 -48 -22 -293 -15 -137 4 -306 12 -375 17 -197 14 -578 28 -900 33 -162 3
-317 9 -345 15 -83 18 -243 29 -426 30 -96 1 -214 4 -264 7 -49 3 -184 7 -300
8 -116 1 -282 4 -370 5 l-160 3 -18 -62 c-33 -111 -42 -106 211 -113 120 -4
274 -11 343 -17 248 -19 739 -42 969 -45 129 -1 243 -6 253 -10 25 -10 17 -37
-13 -46 -14 -4 -60 -11 -104 -14 -43 -4 -74 -11 -70 -15 5 -5 83 -14 174 -20
91 -6 188 -15 215 -20 28 -5 109 -11 180 -15 116 -6 608 -44 775 -61 36 -4 72
-12 80 -19 9 -7 83 -17 175 -24 270 -21 507 -48 514 -58 23 -35 82 -61 159
-73 56 -9 85 -18 92 -29 5 -9 11 -15 14 -13 12 5 26 2 25 -5 -3 -21 3 -24 18
-12 11 10 14 10 9 2 -4 -8 -1 -13 9 -13 12 0 10 -6 -9 -25 -17 -17 -38 -26
-61 -27 -19 -1 -35 -5 -35 -10 0 -4 -7 -8 -15 -8 -8 0 -15 -5 -15 -11 0 -5 -4
-7 -10 -4 -12 7 -13 -5 -2 -22 11 -18 46 -22 392 -42 63 -3 166 -6 228 -5 61
0 112 -2 112 -6 0 -24 424 -45 590 -30 52 5 154 14 225 20 72 6 153 18 180 25
28 8 72 18 98 23 45 9 49 8 59 -13 7 -16 7 -29 -1 -43 -6 -11 -11 -36 -11 -56
0 -71 77 -48 120 37 40 79 56 102 78 112 15 6 22 19 22 36 0 31 31 74 69 93
33 17 195 153 200 168 5 14 -25 4 -115 -38 -39 -19 -78 -34 -86 -34 -8 0 -18
-3 -22 -7 -7 -8 -12 -9 -39 -12 -7 0 -23 -18 -35 -39 -29 -52 -89 -115 -105
-109 -23 8 -10 64 29 118 22 30 44 62 49 72 6 10 35 31 65 46 144 72 187 91
202 91 9 0 20 4 23 10 6 10 -42 87 -70 110 -15 12 -15 11 -4 -13 16 -34 5 -45
-21 -22 -14 13 -20 14 -20 5 0 -9 -9 -5 -24 9 -26 25 -66 22 -66 -5 0 -8 -4
-13 -9 -10 -5 4 -11 0 -14 -6 -3 -9 -11 -4 -25 12 -17 21 -20 22 -19 6 2 -15
-6 -19 -39 -21 -49 -3 -64 -10 -64 -31 0 -11 -6 -13 -20 -9 -18 6 -20 3 -14
-19 9 -37 -2 -32 -26 11 -11 21 -39 59 -62 85 -38 42 -50 49 -102 59 -33 6
-74 8 -90 5 -26 -5 -28 -4 -12 5 10 6 53 13 95 15 148 7 184 15 222 45 51 39
161 98 212 114 36 11 50 10 97 -4 l55 -17 70 29 c39 17 86 40 105 53 19 13 38
24 42 24 4 0 42 17 85 37 65 31 89 38 140 38 64 0 80 8 41 21 -22 6 -21 8 16
40 34 29 47 34 90 34 28 0 78 -8 111 -19 175 -56 185 -58 185 -47 0 14 -110
80 -169 101 -58 20 -82 19 -128 -6 l-38 -20 30 23 c37 28 105 100 105 110 0 5
-7 8 -15 8 -39 0 -3 46 171 217 82 82 176 179 208 216 53 62 61 78 82 158 27
104 47 145 116 242 29 40 60 93 70 120 35 91 99 202 148 256 27 30 47 58 45
61 -10 16 56 88 122 135 39 28 80 64 93 82 20 29 214 208 261 241 10 7 50 17
88 21 118 12 159 54 187 191 10 53 35 111 45 104 5 -3 5 -13 -1 -24 -12 -22
-17 -141 -7 -157 4 -6 -8 -20 -28 -32 -51 -30 -48 -66 11 -125 25 -25 50 -46
55 -46 18 0 99 -83 99 -101 0 -10 20 -39 45 -66 37 -40 43 -44 38 -23 -3 14
-16 39 -29 56 -13 17 -20 34 -17 38 3 3 -4 14 -17 24 l-22 18 26 12 c30 13 30
13 41 -50 6 -42 42 -76 88 -85 16 -3 31 -12 34 -19 4 -12 -5 -68 -23 -141 -5
-18 -2 -23 12 -23 16 0 14 -4 -9 -26 -34 -31 -24 -50 16 -35 15 6 27 14 27 19
0 16 51 33 65 22 9 -7 15 0 25 31 8 22 18 42 22 45 5 3 14 18 19 32 13 33 82
141 91 142 10 0 0 -60 -21 -125 -11 -33 -18 -61 -16 -64 7 -6 45 81 45 102 0
10 12 48 26 83 22 55 24 67 12 81 -12 15 -11 15 10 4 19 -10 22 -9 22 9 0 29
16 57 41 71 16 8 25 7 40 -7 17 -15 19 -15 14 -2 -6 15 9 56 24 68 18 14 50
82 45 95 -4 10 0 15 10 15 13 0 14 3 5 18 -8 12 -9 30 -4 48 9 33 15 62 16 84
1 8 6 20 11 27 5 6 11 28 14 49 3 20 12 53 22 73 9 20 17 42 17 50 0 21 25 25
26 4 1 -10 1 -53 0 -95 -1 -47 3 -78 9 -78 17 0 73 110 102 200 16 47 36 100
45 117 19 35 43 51 43 28 0 -9 6 -12 18 -9 10 4 13 3 6 -3 -6 -4 -14 -18 -18
-30 -4 -13 -12 -23 -17 -23 -5 0 -9 -7 -9 -16 0 -8 4 -13 8 -10 13 8 6 -41
-10 -66 -8 -12 -18 -35 -21 -49 -7 -26 -95 -129 -111 -129 -11 0 -45 -39 -61
-70 -15 -31 -28 -110 -17 -110 23 0 226 259 272 349 18 34 36 64 41 67 5 3 9
14 9 24 0 10 9 26 21 34 12 8 18 19 14 26 -4 7 -11 8 -18 2 -17 -13 -67 -24
-67 -14 0 10 67 35 78 29 4 -3 15 1 25 8 18 13 17 15 -7 60 -14 25 -26 59 -26
75 0 16 -4 32 -10 35 -5 3 -10 17 -10 31 0 19 -5 24 -27 25 -16 1 -32 1 -37 0
-5 -1 -4 4 2 12 7 8 9 17 5 20 -3 4 2 9 11 13 9 3 16 15 16 25 0 11 11 24 25
31 22 10 42 42 37 61 -1 4 2 7 8 7 5 0 10 9 10 20 0 23 19 59 38 75 7 6 14 17
15 25 2 8 5 20 9 25 3 6 9 29 13 53 4 23 11 42 16 42 5 0 9 7 9 16 0 8 5 12
10 9 10 -6 14 7 11 34 -2 7 2 10 8 6 12 -7 36 13 37 30 0 6 10 33 23 60 36 81
39 89 46 120 3 17 8 38 12 49 3 12 1 16 -6 12 -14 -9 -14 5 1 41 6 15 10 64 9
108 -2 69 1 84 18 104 12 13 21 29 21 35 0 6 5 4 10 -4 5 -8 10 -36 10 -62 0
-26 4 -49 9 -52 4 -3 7 6 5 19 -1 14 2 25 7 25 5 0 10 -10 11 -22 3 -45 5 -63
8 -70 5 -15 6 -23 14 -103 5 -44 10 -91 12 -105 7 -64 13 -207 20 -465 3 -154
7 -307 8 -340 1 -33 -4 -72 -11 -86 -7 -15 -9 -30 -5 -33 3 -4 0 -11 -8 -16
-20 -12 -17 -13 77 -38 46 -12 100 -33 122 -48 22 -14 70 -33 108 -41 75 -17
132 -42 153 -69 8 -9 57 -45 110 -79 101 -65 228 -189 268 -260 l22 -40 -23
29 c-78 103 -161 168 -261 204 -60 22 -126 34 -126 23 0 -5 22 -11 48 -14 78
-9 176 -62 251 -136 53 -52 77 -86 113 -161 49 -100 71 -160 63 -168 -2 -2
-10 7 -16 21 -7 15 -15 24 -19 22 -4 -2 -26 14 -50 36 -44 42 -109 81 -94 58
5 -8 2 -11 -8 -6 -12 4 -14 1 -11 -14 4 -13 1 -19 -8 -17 -8 2 -14 -5 -14 -15
0 -11 -9 -26 -21 -36 -11 -9 -19 -22 -17 -28 2 -6 -5 -17 -16 -23 -12 -6 -21
-17 -21 -24 0 -7 -15 -24 -32 -39 -78 -62 -126 -97 -168 -123 -72 -43 -178
-121 -270 -198 -46 -39 -93 -78 -103 -86 -30 -25 -45 -62 -45 -115 1 -28 3
-53 5 -58 5 -9 33 17 33 31 0 16 103 116 135 132 17 8 38 21 48 29 9 8 38 16
63 17 28 2 50 9 58 19 6 9 28 17 50 18 24 2 43 10 52 22 12 17 14 17 14 2 0
-9 3 -17 8 -17 11 0 46 42 62 75 8 16 39 53 68 83 28 29 52 58 52 64 0 9 4 8
12 0 8 -8 9 -15 3 -20 -6 -4 -11 -23 -12 -42 -2 -19 -7 -62 -13 -95 -5 -33
-11 -67 -11 -75 -5 -45 -93 -144 -204 -228 -63 -48 -173 -140 -214 -179 -13
-13 -29 -23 -36 -23 -13 0 -55 -70 -55 -94 0 -18 4 -19 28 -7 50 25 114 51
126 51 8 0 24 9 37 19 21 17 26 18 40 5 8 -8 34 -15 57 -16 28 -1 42 -6 42
-15 0 -11 -5 -11 -20 -3 -14 7 -20 7 -20 0 0 -5 -5 -10 -11 -10 -6 0 -25 -11
-41 -25 -16 -14 -35 -22 -41 -18 -6 4 -8 0 -4 -10 3 -9 -1 -23 -9 -32 -23 -23
-9 -34 36 -28 34 5 40 3 40 -12 0 -14 3 -15 15 -5 8 7 13 16 10 20 -3 4 2 11
10 14 12 4 14 0 9 -22 -4 -15 -11 -28 -16 -30 -4 -2 -8 -12 -8 -22 0 -20 -23
-43 -33 -33 -4 3 -7 -3 -7 -15 0 -30 -17 -36 -37 -13 -9 11 -21 17 -27 13 -6
-4 -15 -7 -21 -7 -5 0 -10 -8 -10 -17 0 -28 -21 -43 -40 -28 -13 10 -15 9 -15
-6 0 -11 -7 -28 -16 -39 -9 -12 -12 -30 -8 -48 3 -15 1 -34 -6 -41 -10 -13 -4
-66 7 -66 3 0 14 9 24 21 17 20 18 20 43 2 27 -19 40 -42 30 -52 -3 -3 -13 3
-21 14 -12 15 -14 16 -10 3 3 -9 1 -18 -5 -20 -7 -3 -5 -14 7 -31 15 -24 16
-27 1 -27 -9 0 -16 -7 -16 -15 0 -14 12 -20 34 -16 4 1 14 -3 21 -9 16 -13 30
4 30 35 0 22 43 37 62 20 8 -7 8 -14 -3 -26 -9 -9 -15 -27 -16 -40 -1 -37 -19
-69 -40 -69 -12 0 -16 -4 -12 -12 5 -7 2 -9 -8 -5 -10 3 -19 -3 -27 -19 -6
-13 -14 -24 -18 -25 -30 -3 -45 -11 -72 -38 -17 -18 -41 -31 -54 -31 -14 0
-39 -15 -60 -35 -33 -32 -35 -37 -25 -65 7 -22 7 -34 -2 -45 -8 -9 -8 -19 -2
-32 18 -33 38 -258 27 -299 l-8 -29 -14 34 c-8 19 -18 71 -24 117 -5 47 -19
107 -33 136 -44 100 -159 203 -296 265 -81 38 -112 45 -141 35 -20 -8 -13 -12
47 -30 79 -24 177 -86 231 -145 36 -40 36 -41 14 -51 -12 -5 -21 -16 -20 -25
4 -45 0 -51 -27 -41 -14 6 -37 10 -51 10 -25 0 -25 -1 16 -45 53 -57 107 -142
115 -181 5 -23 2 -34 -12 -47 -27 -25 -57 -11 -139 66 -88 83 -109 94 -133 72
-24 -22 -36 -73 -21 -88 12 -12 17 -14 51 -16 11 0 23 -9 26 -19 3 -9 11 -27
16 -39 6 -12 8 -31 5 -42 -3 -12 -1 -21 3 -21 17 0 22 -68 9 -104 -16 -43 -35
-51 -89 -36 -45 12 -51 29 -20 60 21 21 27 35 9 25 -19 -13 -80 -7 -92 8 -7 8
-29 20 -49 26 -33 11 -43 9 -95 -14 -32 -15 -74 -34 -93 -43 -19 -8 -41 -21
-48 -29 -7 -7 -23 -13 -35 -13 -12 0 -41 -6 -65 -13 l-42 -13 34 -33 c20 -19
33 -38 31 -42 -3 -4 -29 -1 -58 7 -28 7 -64 14 -78 14 -15 0 -32 7 -40 16 -14
17 -59 13 -105 -11 -14 -7 -32 -11 -39 -9 -6 3 -18 -2 -24 -10 -11 -13 -9 -17
12 -25 33 -13 26 -49 -12 -57 -14 -3 -32 -7 -38 -9 -7 -3 -18 1 -25 9 -10 10
-19 10 -50 -1 -21 -7 -49 -11 -62 -7 -14 3 -40 -3 -64 -15 -23 -12 -55 -21
-71 -21 -16 0 -37 -3 -46 -7 -16 -5 -15 -8 4 -23 20 -15 21 -19 9 -46 -26 -58
-86 -102 -145 -106 -28 -2 -31 -4 -18 -18 7 -8 14 -19 14 -25 0 -5 8 -12 18
-16 33 -12 -7 -19 -96 -17 l-84 3 -3 55 c-3 62 -8 92 -26 134 -11 27 -9 31 20
55 45 36 42 55 -5 48 -58 -10 -106 -87 -54 -87 15 0 17 -11 18 -75 1 -52 6
-83 17 -100 16 -24 16 -26 -7 -34 -27 -11 -289 -32 -296 -25 -14 14 61 32 103
25 4 -1 15 4 23 10 11 10 11 14 1 21 -10 6 -9 12 6 23 24 18 31 54 12 61 -26
10 -26 35 -1 60 13 13 29 24 34 24 6 0 15 9 21 19 14 27 -2 35 -44 21 -41 -13
-66 -39 -62 -65 2 -11 -8 -28 -23 -41 -15 -12 -33 -38 -41 -58 -10 -26 -16
-32 -23 -24 -7 10 -10 10 -14 0 -9 -22 -46 -52 -65 -52 -27 0 -58 36 -58 68 0
42 31 66 74 58 34 -6 35 -6 42 29 3 19 10 35 15 35 5 0 9 9 9 19 0 13 -8 21
-22 23 -18 2 -22 9 -20 31 4 36 -29 37 -52 2 -13 -20 -25 -25 -57 -25 -39 0
-41 -2 -37 -25 7 -32 -10 -32 -22 0 -12 33 -68 35 -96 4 -12 -13 -25 -18 -40
-15 -38 10 -54 -3 -54 -43 l0 -36 -20 25 c-17 23 -24 25 -82 22 -35 -2 -67 -7
-73 -12 -20 -15 -101 -40 -150 -45 -117 -14 -143 -14 -149 1 -3 8 -1 14 5 14
6 0 7 5 3 12 -5 7 -2 9 8 5 12 -4 14 0 10 16 -7 28 -22 38 -46 31 -30 -10
-276 41 -276 57 0 29 98 38 191 18 49 -11 52 -10 78 16 14 14 22 25 16 24 -12
-3 -74 11 -95 21 -18 10 -76 25 -152 40 -32 6 -58 15 -58 20 0 8 -45 8 -101 1
-4 -1 -10 -8 -13 -17 -9 -22 20 -64 43 -64 10 0 29 -8 42 -19 l23 -18 -30 -32
c-29 -32 -37 -41 -114 -114 -38 -37 -41 -38 -75 -27 -31 10 -39 9 -70 -10 -19
-12 -33 -25 -31 -29 3 -4 -25 -18 -62 -31 -37 -13 -73 -27 -79 -33 -7 -5 -20
-7 -28 -3 -24 9 -17 44 13 63 123 76 251 165 256 178 13 34 7 45 -26 45 -46 0
-135 -44 -264 -128 -89 -58 -184 -79 -202 -44 -12 21 -1 51 24 73 33 27 207
125 258 145 26 10 55 29 63 41 18 27 123 96 181 119 54 21 82 10 106 -41 10
-20 20 -35 22 -32 3 3 21 1 41 -3 42 -10 68 8 58 40 -7 23 3 25 52 11 17 -5
35 -5 39 -1 5 5 34 0 64 -10 77 -26 177 -34 245 -20 64 13 87 3 90 -41 1 -18
9 -23 41 -26 30 -3 48 -13 75 -43 21 -21 45 -40 55 -42 16 -2 19 3 16 32 -6
63 -42 121 -92 147 -25 12 -54 25 -65 29 -19 6 -19 6 4 15 13 5 78 14 145 19
66 5 146 14 176 19 30 6 102 13 160 16 212 11 267 24 357 86 32 23 43 35 38
47 -4 10 -12 29 -17 44 -5 16 -13 26 -18 23 -12 -7 -19 48 -9 67 6 12 6 18 0
18 -6 0 -8 6 -5 14 6 15 -25 122 -52 184 -31 70 -33 77 -44 120 -6 23 -21 57
-33 75 -66 98 -106 268 -110 470 l-2 88 -60 5 c-33 2 -66 5 -73 6 -7 1 -36 23
-65 50 -28 26 -53 48 -55 48 -7 0 37 -56 73 -93 24 -25 43 -36 54 -32 11 3 32
-8 57 -30 44 -40 38 -48 -8 -10 -30 26 -63 36 -40 13 20 -20 14 -38 -12 -38
-14 0 -27 4 -30 8 -3 5 -19 7 -36 4 -37 -5 -55 -33 -40 -62 6 -10 12 -32 15
-47 2 -15 7 -43 10 -61 5 -24 1 -42 -15 -67 -12 -19 -18 -35 -14 -35 17 0 -41
-44 -59 -45 -28 -2 -50 -34 -35 -52 6 -8 16 -12 22 -10 6 2 28 -4 48 -15 21
-10 68 -21 105 -24 164 -12 139 -33 -31 -25 -215 9 -271 4 -302 -26 -12 -13
-20 -14 -34 -6 -12 8 -31 8 -60 2 -24 -5 -79 -12 -124 -14 -45 -2 -83 -5 -86
-6 -3 -1 -8 -1 -12 0 -4 0 -5 -6 -1 -14 6 -16 53 -45 73 -45 6 0 28 -11 50
-25 30 -19 39 -31 38 -49 -1 -15 -7 -22 -15 -19 -7 3 -13 1 -13 -4 0 -5 10 -9
21 -10 30 -3 34 -10 14 -30 -17 -16 -18 -16 -35 5 -10 12 -23 22 -28 22 -5 0
-12 7 -16 15 -3 8 -12 15 -21 15 -8 0 -15 4 -15 8 0 5 -11 14 -25 20 -26 12
-33 4 -14 -15 9 -9 8 -16 -5 -28 -9 -9 -16 -21 -16 -26 0 -18 -44 -8 -96 22
-30 17 -59 27 -65 24 -6 -4 -21 3 -34 15 -13 12 -31 20 -42 18 -15 -3 -13 -8
15 -34 18 -17 55 -41 82 -55 27 -13 50 -29 50 -35 0 -7 9 -14 19 -17 13 -3 18
-11 15 -23 -3 -11 4 -37 15 -58 12 -22 19 -42 16 -44 -5 -6 1 -11 -148 107
-65 52 -121 90 -125 86 -4 -4 27 -38 68 -76 51 -47 69 -69 57 -69 -11 0 -27
-10 -38 -22 l-19 -23 -20 25 c-75 92 -91 88 -25 -5 45 -64 85 -131 85 -140 0
-3 -11 1 -25 7 -14 6 -25 16 -25 21 0 5 -10 20 -22 32 -13 13 -29 31 -37 40
-21 26 -34 3 -17 -30 16 -31 13 -46 -6 -27 -7 7 -19 12 -28 12 -9 0 -27 14
-39 31 -29 39 -52 25 -26 -15 10 -14 14 -26 11 -26 -4 0 -2 -9 4 -20 9 -17 8
-20 -11 -17 -14 1 -24 -5 -30 -21 -6 -15 -5 -21 1 -17 6 3 10 -1 10 -10 0 -10
-6 -15 -17 -13 -10 2 -17 10 -15 17 1 6 -5 19 -13 28 -14 13 -18 13 -41 -2
-19 -12 -29 -14 -39 -5 -10 8 -14 8 -18 -2 -4 -10 -8 -10 -16 2 -5 8 -13 11
-17 8 -3 -4 3 -20 15 -36 12 -17 21 -34 21 -39 0 -14 42 -50 66 -57 12 -4 29
-15 39 -26 17 -19 17 -20 -6 -29 -13 -6 -43 -15 -66 -21 -22 -6 -63 -28 -89
-50 -27 -22 -72 -51 -100 -64 -29 -14 -67 -38 -85 -54 -19 -16 -50 -37 -69
-47 -19 -10 -69 -40 -110 -67 -41 -27 -87 -52 -102 -55 -27 -5 -28 -8 -27 -67
0 -33 4 -83 7 -111 l7 -50 60 -6 c33 -4 146 -14 250 -23 105 -8 201 -18 215
-21 42 -8 265 -24 440 -31 97 -3 239 -1 345 6 99 7 241 14 315 16 480 12 862
26 1035 39 279 21 703 36 805 30 47 -3 207 -10 355 -15 149 -5 351 -16 450
-24 99 -8 268 -20 375 -26 254 -14 301 -20 307 -37 3 -8 4 -16 1 -18 -4 -5
-124 -23 -398 -60 -102 -14 -286 -41 -410 -60 -124 -19 -290 -42 -370 -51 -79
-9 -153 -20 -165 -24 -11 -5 636 -9 1438 -9 l1457 -1 0 643 0 642 -177 3
c-153 3 -179 5 -188 19 -28 47 -106 118 -158 144 -31 16 -94 38 -140 49 -101
24 -376 60 -460 60 -78 0 -91 8 -82 48 l6 30 92 7 c51 3 320 5 599 3 l508 -3
0 59 0 58 -42 -6 c-113 -17 -264 -18 -340 -2 -42 9 -79 16 -82 16 -3 0 -12 13
-21 30 -12 24 -18 95 -26 346 -5 174 -11 320 -13 323 -2 3 -7 74 -10 156 -4
83 -11 193 -16 245 -5 52 -11 138 -14 190 -6 103 -18 315 -20 368 -1 17 -7 37
-14 44 -9 9 -6 20 10 49 17 31 28 39 62 45 42 7 187 12 404 13 l122 1 0 1891
0 1892 -37 -7 c-21 -3 -137 -22 -258 -41 -256 -40 -769 -122 -1035 -165 -298
-48 -419 -62 -464 -55 -55 10 -106 31 -122 53 -18 23 -18 97 1 115 19 20 25
21 375 72 52 8 185 28 295 45 110 17 306 46 435 65 129 19 271 41 315 49 44 8
148 24 230 36 83 11 176 26 208 32 l57 12 0 317 0 317 -52 -4 c-29 -3 -69 -9
-88 -14 -39 -11 -202 -38 -270 -46 -25 -3 -54 -9 -65 -14 -11 -5 -38 -11 -60
-14 -219 -29 -290 -40 -355 -54 -52 -12 -366 -58 -455 -68 -33 -3 -63 -10 -66
-16 -4 -6 -12 -8 -18 -4 -6 4 -37 2 -68 -3 -110 -19 -405 -63 -449 -66 -21 -1
-31 3 -31 12 0 10 7 13 21 9 11 -3 25 -1 30 3 6 5 20 11 31 13 11 1 23 8 27
13 4 6 11 10 15 11 4 0 22 6 38 13 17 7 62 19 100 28 39 8 79 18 90 23 11 4
47 13 80 20 33 6 65 12 70 13 6 2 15 5 20 9 6 3 21 6 35 6 14 0 66 11 115 26
50 14 155 37 235 51 80 14 161 30 180 35 19 5 51 11 70 14 51 8 124 21 310 55
91 16 192 33 225 37 33 4 62 8 65 9 5 1 108 19 170 29 14 3 31 5 38 5 18 1 17
101 -2 101 -7 0 -114 -20 -237 -44 -306 -61 -507 -99 -1039 -196 -58 -11 -171
-31 -252 -45 -82 -14 -212 -36 -290 -50 -79 -13 -190 -31 -248 -40 -58 -9
-143 -22 -190 -30 -47 -7 -125 -16 -175 -20 -49 -4 -93 -9 -96 -11 -3 -1 -34
-6 -70 -9 -35 -4 -89 -10 -119 -15 -30 -5 -93 -11 -140 -15 -200 -13 -250 -14
-250 -4 0 6 -4 8 -9 5 -5 -4 -20 -2 -33 3 -12 6 -18 10 -12 10 7 1 14 11 17
22 4 15 11 20 21 16 11 -5 16 0 16 14 0 12 10 23 26 29 33 13 37 13 28 -2 -4
-6 -3 -8 4 -5 5 4 8 17 5 30 -3 16 -2 18 5 8 7 -9 12 -10 16 -2 4 6 12 11 17
11 6 0 7 -6 3 -12 -6 -10 -5 -10 8 -1 8 7 18 10 21 7 3 -3 16 3 28 15 12 11
26 18 31 15 4 -3 8 0 8 6 0 6 4 9 9 6 5 -3 14 1 21 9 7 8 21 15 31 15 10 0 21
5 24 10 3 6 11 10 16 10 6 0 8 -4 5 -9 -3 -4 6 -6 19 -3 14 2 25 9 25 14 0 6
7 8 14 5 10 -4 13 -1 10 7 -4 9 3 12 22 10 15 -1 37 4 50 13 13 8 28 12 33 9
6 -4 27 0 47 9 20 8 46 15 59 15 12 0 25 3 29 7 3 4 16 8 28 10 12 2 25 9 30
15 4 7 10 9 14 6 4 -4 16 -2 27 4 17 8 19 8 14 -5 -4 -11 -2 -14 9 -10 7 3 14
10 14 15 0 6 7 8 15 4 14 -5 64 11 75 25 3 3 23 9 45 13 22 4 46 12 53 18 8 7
12 7 12 0 0 -12 28 -9 57 6 10 5 26 8 36 7 9 -2 17 1 17 5 0 5 11 7 25 4 15
-2 25 0 25 7 0 6 7 9 15 5 8 -3 15 -2 15 3 0 5 10 8 23 7 12 -1 25 3 29 8 3 5
24 11 45 12 21 1 38 3 38 4 0 3 41 11 88 17 26 3 50 10 53 14 3 5 21 9 40 9
19 0 34 5 34 12 0 6 3 8 7 5 3 -4 12 -2 20 4 10 9 13 7 13 -7 0 -11 3 -15 8
-8 10 15 44 27 70 25 12 -1 22 2 22 6 0 5 14 8 30 7 16 -1 30 2 30 6 0 4 9 6
19 3 10 -3 28 0 39 6 14 7 23 8 27 1 4 -7 13 -6 26 1 12 6 23 9 25 6 3 -3 22
3 42 13 29 14 40 16 51 7 12 -10 13 -9 6 3 -8 13 -6 13 8 2 9 -8 22 -10 29 -6
17 11 55 17 106 17 23 0 42 3 42 6 0 8 69 5 77 -3 4 -3 12 -1 18 4 7 6 59 13
116 16 57 4 113 10 125 15 15 5 24 4 26 -3 3 -8 10 -8 24 0 21 11 89 23 154
27 19 1 37 3 40 5 3 1 28 4 55 5 98 5 251 15 313 21 l62 6 0 149 0 149 -2716
0 c-1961 0 -2721 -3 -2736 -11 -18 -10 -67 -18 -118 -20 -8 -1 -42 -5 -75 -10
-60 -9 -101 -14 -205 -25 -30 -3 -109 -7 -175 -8 -66 -2 -122 -4 -125 -5 -3
-2 -32 -3 -65 -4 -42 -2 -64 2 -73 13 -8 8 -11 10 -8 4 6 -12 -65 -11 -164 1
-96 12 -150 14 -150 5 0 -5 -7 -7 -15 -4 -8 4 -13 9 -11 13 2 3 -19 6 -47 7
-29 0 -69 3 -89 6 -23 3 -35 1 -31 -4 3 -6 -3 -7 -17 -3 -12 4 -45 9 -72 10
-28 2 -53 6 -56 9 -3 3 -12 0 -20 -7 -9 -6 -13 -7 -10 -2 4 7 -29 11 -100 10
-59 0 -129 3 -157 8 -73 12 -307 18 -319 8 -23 -19 -101 -22 -151 -7 -40 13
-103 16 -320 15 l-270 -1 65 -17 c36 -10 72 -20 80 -24 22 -9 152 -42 250 -63
47 -9 90 -20 95 -24 6 -4 33 -13 60 -19 83 -21 105 -32 111 -56 16 -66 -14
-93 -142 -125 -105 -26 -155 -25 -304 9 -69 16 -179 41 -245 56 -66 15 -203
46 -305 70 -102 24 -228 53 -280 65 -88 19 -201 47 -420 102 l-85 22 -1692 3
-1693 3 0 -675z m9834 419 c88 -29 116 -51 116 -94 0 -52 -29 -63 -360 -131
-80 -16 -248 -52 -375 -79 -126 -27 -318 -68 -425 -91 -107 -23 -276 -59 -375
-80 -99 -22 -245 -53 -325 -69 -80 -16 -229 -47 -332 -68 -167 -34 -195 -37
-265 -30 -155 15 -193 37 -193 109 0 27 6 41 23 51 30 20 543 138 967 223 69
14 197 41 285 60 88 19 288 62 445 94 157 33 348 73 425 90 234 50 276 51 389
15z m-4500 -1909 c6 -11 18 -25 26 -32 23 -19 84 -3 94 24 5 13 10 12 26 -7
15 -17 27 -21 54 -18 19 2 32 0 29 -5 -3 -5 4 -6 16 -2 24 7 46 -4 46 -25 0
-10 13 -16 40 -18 22 -1 45 -9 51 -17 6 -8 17 -15 25 -15 17 -1 69 -45 69 -59
0 -6 11 -13 25 -17 14 -3 24 -12 23 -19 -4 -17 63 -81 81 -77 10 3 12 -7 9
-37 -2 -23 0 -41 4 -41 11 0 10 -52 -1 -69 -5 -8 -5 -28 1 -48 12 -43 5 -51
-52 -58 -48 -5 -148 -33 -165 -45 -5 -4 -44 -13 -85 -20 -94 -15 -130 -35
-124 -67 5 -25 -7 -28 -64 -17 -28 6 -30 9 -21 26 14 26 -11 54 -55 63 -35 8
-226 98 -268 127 -33 23 -93 21 -93 -2 0 -10 12 -16 37 -18 26 -2 46 -12 65
-32 14 -16 45 -36 67 -46 94 -39 110 -48 99 -51 -6 -2 -28 3 -48 11 -21 9 -56
17 -79 17 -22 1 -54 4 -71 8 -16 4 -48 3 -70 -1 -107 -22 -105 -21 -105 -4 0
26 40 97 50 91 5 -3 12 -21 16 -40 3 -19 10 -35 15 -35 12 0 11 5 -3 52 -9 29
-9 41 0 50 7 7 12 25 12 40 0 15 9 54 19 85 12 36 19 87 20 133 0 102 9 150
29 157 10 3 24 7 32 11 8 3 20 4 25 3 36 -10 51 -9 76 4 15 8 37 15 49 15 11
0 20 5 20 11 0 5 5 7 10 4 6 -3 10 3 10 15 0 25 19 22 34 -5z m-403 -430 l-20
-40 -1 70 c0 39 -3 81 -6 95 -2 14 7 0 21 -30 l26 -55 -20 -40z m1063 -188 c3
-12 1 -26 -3 -30 -12 -12 -152 5 -152 18 0 11 120 44 138 38 6 -3 14 -14 17
-26z m-772 -27 c27 -8 36 -15 31 -26 -4 -11 -14 -14 -37 -10 -84 14 -156 18
-156 8 0 -16 111 -123 140 -134 31 -12 115 -1 131 18 6 8 20 14 30 14 16 0 19
-8 19 -48 0 -81 -40 -115 -148 -128 -60 -6 -64 -5 -133 36 -39 23 -68 44 -65
48 4 3 12 0 18 -6 7 -7 18 -12 26 -12 11 0 11 3 -2 15 -8 8 -20 15 -26 15 -6
0 -10 5 -8 12 5 13 -20 41 -51 57 -47 26 -34 136 18 147 14 3 31 8 36 10 16 6
137 -4 177 -16z m653 -43 l39 -15 -59 -4 c-47 -4 -63 -1 -75 12 -9 9 -22 20
-30 23 -32 14 87 -1 125 -16z m-582 -77 c-10 -38 -112 -30 -134 11 -12 24 0
24 40 2 29 -17 31 -17 58 3 29 22 44 16 36 -16z m234 -18 c14 -19 17 -46 13
-112 -4 -69 -3 -99 7 -185 l10 -80 -35 -33 c-23 -22 -40 -31 -53 -27 -26 8
-23 -4 7 -39 22 -25 29 -28 45 -18 12 8 20 8 25 1 3 -6 12 -8 20 -5 8 3 40 -6
72 -21 l57 -27 -65 -6 c-36 -3 -71 -10 -78 -14 -6 -4 -35 0 -64 8 -29 9 -69
18 -89 21 -29 4 -38 11 -43 30 -4 14 -13 25 -22 25 -12 0 -14 -7 -9 -30 5 -23
3 -30 -9 -30 -8 0 -18 -9 -21 -20 -3 -11 -10 -20 -14 -20 -11 0 -68 100 -86
149 -8 24 -20 50 -25 56 -6 7 -18 37 -29 66 -10 30 -30 78 -45 107 -14 28 -23
52 -19 52 4 0 27 -10 51 -22 63 -30 175 -36 222 -11 40 20 95 112 105 176 7
36 9 38 33 32 14 -3 32 -14 39 -23z m367 2 c4 -9 1 -24 -6 -32 -9 -11 -9 -14
-1 -9 6 4 14 3 17 -2 3 -5 -1 -12 -10 -15 -32 -12 -80 -5 -119 18 -34 21 -37
26 -22 32 12 4 29 -1 47 -15 31 -23 45 -27 35 -11 -3 6 1 10 9 10 8 0 18 9 21
20 8 24 21 26 29 4z m-73 -84 c45 -11 122 -5 188 16 23 7 24 6 18 -32 -9 -52
-71 -109 -130 -118 -43 -7 -127 13 -158 37 -24 18 -59 79 -59 101 0 10 8 24
17 31 13 10 22 9 47 -6 17 -10 52 -23 77 -29z m762 -132 c4 -40 2 -118 -4
-173 -10 -97 -50 -296 -70 -344 l-10 -24 -29 28 -29 28 31 56 c49 88 78 214
85 373 3 76 9 135 13 133 4 -2 10 -37 13 -77z m-832 -3 c24 -9 86 -22 139 -31
128 -20 129 -20 123 -47 -3 -12 -10 -28 -16 -34 -5 -7 -6 -13 -3 -13 4 0 -3
-10 -14 -22 -11 -13 -23 -34 -26 -48 -3 -14 -9 -33 -14 -42 -6 -10 -7 -24 -4
-32 7 -18 -31 -42 -42 -25 -3 6 -15 9 -25 6 -10 -3 -23 1 -29 8 -6 7 -24 15
-40 19 -29 5 -30 8 -31 63 -1 32 0 66 1 76 1 10 -15 39 -36 65 -59 74 -58 72
-41 72 8 0 34 -7 58 -15z m4552 -317 c2 -23 -1 -35 -10 -35 -7 0 -11 2 -9 4 2
2 0 19 -4 38 -4 19 -5 37 -2 40 11 10 23 -12 25 -47z m-4916 -75 c9 -13 10
-23 4 -27 -5 -3 -16 8 -25 25 -17 34 -1 36 21 2z m3026 -20 c16 -13 34 -23 40
-22 8 0 8 2 0 6 -7 2 -13 9 -13 14 0 5 22 -2 48 -15 27 -14 68 -27 92 -30 24
-2 57 -11 74 -19 17 -9 51 -21 76 -28 56 -17 180 -78 180 -89 0 -5 3 -16 6
-24 5 -12 2 -15 -11 -10 -9 4 -20 2 -24 -4 -4 -7 -29 -14 -57 -16 -52 -4 -125
-21 -159 -36 -11 -4 -28 -11 -38 -14 -11 -4 -15 -11 -11 -18 5 -9 3 -9 -9 1
-15 12 -17 11 -17 -3 0 -41 19 -57 68 -55 26 1 54 7 62 14 8 6 34 18 58 25 24
7 47 21 52 31 14 26 36 30 76 13 30 -13 39 -13 46 -2 7 9 8 8 4 -5 -4 -13 0
-20 14 -24 32 -8 25 -40 -11 -47 -21 -4 -29 -10 -26 -20 9 -23 -46 -40 -109
-33 -83 9 -104 -3 -104 -55 0 -42 1 -44 49 -66 27 -12 64 -21 82 -21 28 1 29
3 9 6 -31 6 -51 23 -27 23 10 0 20 7 23 15 4 8 11 12 17 8 11 -7 86 -16 127
-16 14 0 43 11 65 24 64 38 104 50 126 36 11 -7 17 -18 14 -25 -3 -8 -5 -23
-5 -33 0 -12 -4 -17 -11 -13 -16 10 -29 -17 -18 -38 7 -14 6 -18 -6 -18 -8 0
-15 -3 -16 -7 -1 -5 -2 -28 -4 -53 -1 -25 -12 -63 -23 -85 -11 -21 -18 -45
-15 -51 3 -7 -1 -21 -7 -31 -10 -16 -11 -16 -6 0 3 9 1 17 -4 17 -10 0 -12 -6
-14 -55 0 -16 -6 -29 -11 -28 -6 1 -11 -17 -12 -40 0 -23 -1 -51 -1 -62 -2
-40 5 -106 12 -112 13 -13 5 -21 -18 -19 -14 2 -30 -1 -38 -5 -10 -7 -10 -9 0
-9 17 0 15 -15 -4 -34 -14 -14 -20 -30 -23 -58 -1 -3 -15 -11 -32 -17 -16 -6
-29 -16 -27 -23 2 -13 -29 -67 -47 -80 -7 -5 -7 -11 0 -16 6 -4 21 -20 34 -35
24 -27 24 -27 5 -42 -10 -8 -15 -15 -11 -15 11 0 -19 -30 -30 -30 -4 0 -18
-11 -31 -24 -14 -16 -29 -22 -42 -19 -14 4 -20 0 -20 -11 0 -9 -3 -15 -7 -15
-18 4 -94 -14 -99 -23 -4 -7 -9 -6 -13 1 -4 6 -28 11 -54 12 -30 2 -54 9 -66
21 -22 19 -36 24 -26 8 3 -5 2 -10 -4 -10 -21 0 -53 88 -65 181 -4 28 -17 62
-26 69 -18 13 -54 116 -86 245 -19 77 -46 176 -60 220 -33 103 -35 213 -6 277
11 23 21 35 21 26 2 -41 87 -43 137 -3 l29 24 -27 26 c-32 30 -36 40 -10 30
10 -4 13 -3 7 3 -9 9 -81 30 -116 35 -30 5 -47 27 -51 67 -2 22 -3 40 -2 40
23 0 121 -45 151 -69 41 -32 63 -34 63 -5 0 8 -4 14 -10 14 -5 0 -10 5 -10 12
0 27 -82 86 -163 117 -32 12 -33 17 -7 101 11 36 20 75 20 87 0 12 12 35 26
53 28 33 23 34 87 -17z m-2895 -52 c36 -10 155 -7 173 5 18 11 8 -16 -13 -36
-15 -13 -35 -20 -63 -20 -56 0 -155 20 -155 32 0 5 -11 26 -25 46 -37 55 -30
72 11 24 22 -26 49 -45 72 -51z m82 29 c0 -6 -6 -10 -14 -10 -16 0 -38 24 -30
33 9 8 44 -11 44 -23z m-218 -23 c14 -7 39 -29 56 -49 19 -21 55 -45 90 -59
31 -12 66 -29 78 -36 12 -7 49 -14 83 -16 57 -2 65 -5 59 -24 -4 -12 -36 -14
-43 -3 -4 7 -13 6 -26 0 -13 -8 -25 -7 -39 0 -15 8 -27 7 -47 -3 -53 -26 -128
-6 -160 42 -30 47 -83 143 -83 152 0 12 3 11 32 -4z m1038 -46 c0 -4 -18 -21
-40 -36 -23 -16 -43 -39 -47 -54 -3 -14 -12 -35 -19 -46 -8 -11 -14 -27 -14
-36 0 -9 -6 -19 -14 -22 -7 -3 -13 -16 -13 -29 0 -13 -10 -44 -22 -68 -16 -34
-18 -46 -9 -52 9 -5 16 1 22 17 6 14 16 25 24 25 7 0 11 4 8 8 -7 12 26 12 41
0 7 -5 14 -5 18 2 6 10 40 -15 40 -31 0 -4 3 -11 8 -15 4 -4 7 -22 7 -40 0
-40 -36 -198 -55 -239 -7 -16 -16 -48 -20 -70 -4 -22 -13 -44 -20 -50 -9 -8
-10 -29 -3 -85 10 -92 16 -108 18 -55 1 22 4 54 5 70 3 38 65 214 86 246 9 13
28 59 42 101 32 96 44 118 62 118 8 0 19 9 25 19 13 26 49 16 62 -18 13 -35 2
-146 -21 -207 -11 -27 -33 -123 -50 -212 -34 -176 -47 -222 -93 -321 -16 -35
-31 -78 -34 -95 -11 -61 -36 -126 -49 -126 -16 0 -25 -45 -25 -134 -1 -65 -21
-180 -34 -193 -3 -3 -12 0 -20 6 -10 8 -16 9 -21 1 -3 -5 -15 -10 -26 -10 -21
0 -61 -22 -97 -54 -13 -11 -33 -21 -45 -21 -15 0 -23 -7 -25 -22 -4 -28 3 -29
35 -3 14 11 36 20 50 20 13 0 35 7 48 16 14 9 25 12 25 6 0 -6 -34 -27 -75
-47 -41 -20 -78 -42 -83 -48 -5 -7 -12 -36 -16 -66 -6 -49 -6 -53 11 -46 10 4
30 8 45 10 30 2 168 82 168 97 0 6 -6 8 -12 5 -67 -25 -81 -10 -23 24 35 21
38 27 39 84 1 20 7 31 19 33 17 3 18 -4 12 -93 -6 -107 -8 -115 -34 -115 -22
0 -128 -57 -154 -83 -13 -13 -22 -16 -29 -9 -12 12 -40 4 -32 -9 3 -5 -1 -9
-9 -9 -20 0 -24 23 -20 105 4 83 6 174 4 195 -1 13 -3 13 -14 -1 -7 -9 -22
-21 -34 -28 -13 -6 -23 -18 -23 -26 0 -8 -9 -19 -21 -26 -17 -9 -25 -7 -46 13
-20 18 -23 29 -18 55 5 29 3 33 -15 33 -33 0 -74 26 -105 65 -35 47 -95 256
-110 385 -13 116 -17 140 -24 145 -5 2 -11 66 -15 142 -4 76 -9 164 -13 196
-7 68 11 79 21 12 4 -24 11 -47 17 -50 5 -4 7 -11 4 -16 -4 -5 -1 -9 4 -9 6 0
11 -9 11 -21 0 -11 9 -32 19 -45 19 -24 20 -24 26 -5 3 11 10 52 14 91 8 78
-12 170 -82 387 -21 61 -37 115 -37 120 0 4 48 8 107 8 112 0 131 5 202 57 20
15 26 16 43 3 11 -7 26 -23 32 -36 10 -19 111 -66 155 -72 17 -2 60 78 61 112
0 31 27 61 55 61 13 0 45 23 81 60 54 55 84 73 84 51z m43 -91 c-3 -11 -9 -20
-14 -20 -10 0 -12 24 -2 33 13 13 21 7 16 -13z m3482 -458 c-15 -16 -16 -15
-4 12 7 15 15 23 17 16 3 -7 -3 -19 -13 -28z m-3338 -666 c-4 -10 -13 -13 -23
-9 -15 6 -15 7 1 20 21 15 30 10 22 -11z m3080 -54 c-10 -10 -17 -21 -17 -25
0 -4 -47 -54 -105 -113 -57 -59 -102 -110 -99 -115 3 -5 -2 -9 -11 -9 -9 0
-22 -13 -27 -28 -6 -16 -26 -39 -45 -52 -18 -12 -33 -29 -33 -36 0 -8 -4 -14
-10 -14 -5 0 -10 -7 -10 -15 0 -8 -7 -15 -16 -15 -10 0 -14 -6 -11 -14 4 -9 0
-12 -12 -9 -14 3 -20 -3 -25 -27 l-6 -32 -19 23 c-19 23 -21 23 -48 9 -49 -27
-73 -75 -73 -146 0 -35 5 -66 10 -69 6 -4 8 -11 4 -16 -11 -19 -23 3 -30 57
-9 79 7 125 61 171 24 20 42 40 40 44 -3 4 12 19 33 35 33 25 222 196 395 356
62 57 85 75 54 40z m-845 -592 c6 0 7 -7 4 -15 -3 -9 1 -18 9 -21 8 -4 13 -10
10 -14 -3 -4 3 -7 12 -6 10 0 19 -10 24 -26 10 -36 0 -35 -40 4 -41 40 -51 66
-50 126 l1 47 10 -47 c6 -27 15 -48 20 -48z m-2646 71 c-7 -11 -116 -64 -121
-59 -14 13 57 52 123 67 2 1 1 -3 -2 -8z m90 -118 c-10 -10 -19 5 -10 18 6 11
8 11 12 0 2 -7 1 -15 -2 -18z m-46 -8 c0 -8 -4 -15 -10 -15 -5 0 -10 7 -10 15
0 8 5 15 10 15 6 0 10 -7 10 -15z m50 -30 c0 -8 -6 -15 -13 -15 -8 0 -22 -9
-32 -20 -10 -11 -22 -17 -26 -14 -14 8 10 44 25 38 7 -3 16 2 19 10 8 20 27
21 27 1z m3011 -52 c-10 -21 -33 -54 -50 -72 -25 -28 -39 -35 -69 -35 -22 0
-42 -6 -49 -15 -8 -11 -12 -12 -13 -3 0 6 -9 12 -19 12 -11 0 -22 4 -26 10 -3
5 -12 7 -20 3 -8 -3 -15 -1 -15 5 0 12 47 25 60 17 5 -3 12 14 15 39 l7 43 53
7 c29 3 72 17 96 31 52 29 61 18 30 -42z m72 27 c-7 -27 -20 -16 -20 15 0 19
2 23 12 15 7 -6 11 -20 8 -30z m2022 -53 c14 -24 25 -47 25 -51 0 -16 -21 8
-37 42 -9 20 -19 40 -21 45 -2 4 -1 7 2 7 3 0 17 -20 31 -43z m-15 -73 c0 -8
-4 -12 -10 -9 -5 3 -10 10 -10 16 0 5 5 9 10 9 6 0 10 -7 10 -16z m50 -39 c11
-13 10 -14 -4 -9 -9 3 -16 10 -16 15 0 13 6 11 20 -6z m34 -67 c9 -17 16 -35
16 -39 0 -5 20 -39 44 -76 62 -96 84 -144 100 -213 13 -54 13 -61 -2 -70 -10
-5 -12 -10 -4 -10 6 0 12 -6 12 -12 0 -19 -18 -43 -26 -35 -4 3 -2 13 5 21 9
11 8 15 -4 20 -17 6 -21 36 -5 36 6 0 10 7 10 15 0 8 -4 15 -10 15 -11 0 -37
55 -70 145 -30 86 -44 115 -53 115 -5 0 -6 4 -3 9 3 5 -1 12 -9 15 -11 4 -14
13 -9 31 4 18 2 27 -10 31 -9 3 -16 12 -16 20 0 24 18 15 34 -18z m14 -155 c0
-25 -1 -26 -14 -8 -8 10 -14 25 -14 32 0 7 6 10 14 7 7 -3 14 -17 14 -31z m73
-290 c0 -10 2 -25 4 -33 2 -8 7 -31 10 -50 7 -32 6 -34 -7 -15 -18 24 -32 115
-18 115 6 0 10 -8 11 -17z m-621 -278 c0 -8 -4 -15 -10 -15 -5 0 -10 7 -10 15
0 8 5 15 10 15 6 0 10 -7 10 -15z m-246 -350 c-4 -8 -8 -15 -10 -15 -2 0 -4 7
-4 15 0 8 4 15 10 15 5 0 7 -7 4 -15z m196 -86 c0 -5 -4 -9 -10 -9 -5 0 -10 7
-10 16 0 8 5 12 10 9 6 -3 10 -10 10 -16z m-11 -50 c-5 -3 -9 -14 -8 -25 4
-37 -1 -54 -16 -54 -22 0 -24 72 -2 95 8 8 15 9 23 1 7 -6 8 -14 3 -17z
m-6239 -44 c26 -13 50 -52 50 -80 0 -10 -8 -7 -25 9 -50 46 -174 60 -273 31
-72 -22 -186 -90 -222 -133 -16 -20 -30 -32 -30 -27 0 20 86 104 141 138 106
67 180 89 273 81 33 -3 72 -12 86 -19z m-53 -50 c50 -21 72 -42 92 -90 46
-105 67 -209 39 -186 -7 6 -35 29 -61 51 -53 44 -57 46 -57 28 0 -7 28 -31 61
-52 60 -39 130 -119 144 -163 5 -18 2 -23 -13 -23 -24 0 -47 -27 -56 -64 -4
-16 -16 -39 -26 -50 -10 -12 -34 -39 -53 -61 -37 -41 -116 -81 -142 -71 -20 7
-19 40 1 57 21 17 48 71 84 171 32 86 32 124 2 130 -31 6 -207 -27 -225 -42
-10 -8 -23 -20 -30 -25 -75 -65 -154 -115 -181 -115 -20 0 -45 -11 -68 -31
-45 -36 -158 -89 -191 -89 -14 0 -35 -8 -48 -18 -33 -25 -79 -44 -79 -32 0 5
26 27 58 49 31 21 79 62 107 90 27 28 55 51 62 51 7 0 41 27 75 60 l63 59 -57
1 c-69 0 -71 18 -5 45 59 24 87 35 92 35 8 0 -8 -34 -23 -52 -9 -10 -10 -18
-4 -18 17 0 52 50 52 75 0 30 16 42 80 58 72 19 143 87 90 87 -25 0 -25 5 0
32 14 16 17 25 9 34 -14 17 4 49 39 68 36 20 123 20 169 1z m-327 -134 c0 -6
-4 -13 -10 -16 -5 -3 -10 1 -10 9 0 9 5 16 10 16 6 0 10 -4 10 -9z m3208 -256
c-3 -3 -9 2 -12 12 -6 14 -5 15 5 6 7 -7 10 -15 7 -18z m921 -50 c12 -31 21
-60 21 -65 0 -12 -38 -12 -133 -3 l-68 6 23 25 c30 33 110 91 125 92 6 0 21
-25 32 -55z m-949 -64 c0 -9 3 -27 7 -40 5 -21 4 -22 -14 -12 -21 11 -38 55
-28 71 9 14 35 0 35 -19z m-1964 -49 c-3 -5 17 -8 44 -8 34 1 55 -4 67 -16 16
-17 16 -18 -5 -18 -15 0 -22 -6 -22 -20 0 -15 -7 -20 -24 -20 -14 0 -31 -9
-39 -21 -8 -11 -23 -22 -33 -24 -11 -2 -19 -4 -19 -5 0 -1 -8 -3 -17 -5 -22
-4 -22 5 -3 51 8 19 12 41 9 48 -3 8 5 21 18 30 25 18 32 20 24 8z m-186 -56
c0 -3 -4 -8 -10 -11 -5 -3 -10 -1 -10 4 0 6 5 11 10 11 6 0 10 -2 10 -4z m55
-12 c-9 -10 -22 -13 -33 -9 -15 7 -15 8 3 15 35 15 48 12 30 -6z m2085 -29
c10 -12 10 -15 -3 -15 -8 0 -20 7 -27 15 -10 12 -10 15 3 15 8 0 20 -7 27 -15z
m-2933 -111 c3 -11 -46 -48 -54 -40 -3 3 2 17 11 31 17 25 37 29 43 9z m1863
-9 c0 -8 -2 -15 -4 -15 -2 0 -6 7 -10 15 -3 8 -1 15 4 15 6 0 10 -7 10 -15z
m-528 -94 c21 -18 19 -21 -26 -31 -39 -9 -51 -1 -42 28 7 22 43 23 68 3z
m-1372 -5 c0 -8 -5 -18 -11 -22 -14 -8 -33 11 -25 25 10 16 36 13 36 -3z
m1300 -40 c0 -14 -29 -31 -38 -21 -6 6 18 35 29 35 5 0 9 -6 9 -14z m-141 -97
c-11 -11 -30 -19 -42 -17 -20 3 -20 5 8 20 42 24 59 22 34 -3z m4236 -20 c4
-6 -1 -17 -11 -24 -22 -17 -154 -21 -154 -5 0 6 7 10 15 10 8 0 15 4 15 9 0
20 124 29 135 10z m-4272 -58 c16 -2 6 -21 -12 -21 -11 0 -23 -4 -26 -10 -9
-15 -35 -12 -35 5 0 17 28 34 49 30 9 -2 19 -4 24 -4z m3421 -264 c13 -36 -2
-61 -37 -65 -37 -5 -65 38 -48 74 9 21 17 25 43 22 25 -2 35 -9 42 -31z"/>
<path d="M5290 5960 c-13 -8 -13 -10 2 -10 9 0 20 5 23 10 8 13 -5 13 -25 0z"/>
<path d="M5359 5783 c-21 -15 -52 -50 -70 -78 -19 -27 -38 -53 -42 -56 -4 -3
-1 -12 8 -19 24 -20 42 -5 98 79 58 87 60 116 6 74z"/>
<path d="M8610 4870 c-9 -17 -8 -20 8 -20 24 0 32 8 25 26 -7 20 -20 17 -33
-6z"/>
<path d="M8554 4643 c-6 -17 -7 -41 -2 -61 l9 -32 31 16 c35 18 48 9 48 -36 0
-45 -48 -69 -68 -34 -11 19 -63 12 -83 -12 -6 -8 -25 -14 -42 -14 -31 0 -31 0
-9 -16 12 -8 22 -23 22 -33 0 -15 7 -18 38 -15 20 1 67 5 104 8 74 6 101 18
117 53 25 54 11 108 -43 166 -29 30 -42 37 -73 37 -33 0 -40 -4 -49 -27z"/>
<path d="M8412 4257 c-27 -29 -28 -53 -2 -60 15 -4 20 -14 20 -42 0 -52 23
-89 75 -119 40 -24 49 -26 83 -17 20 6 50 11 65 11 31 0 45 23 27 45 -9 11 -5
22 20 54 18 22 45 44 61 50 16 5 29 14 29 20 0 17 -43 41 -75 41 -16 0 -58 10
-93 22 -53 19 -68 20 -94 10 -20 -7 -37 -8 -49 -2 -27 15 -44 12 -67 -13z
m135 -79 c15 -1 38 2 50 6 32 10 35 -6 8 -38 -49 -57 -165 -39 -149 22 6 19
11 22 35 17 15 -4 40 -7 56 -7z"/>
<path d="M8710 4050 c0 -5 5 -10 10 -10 6 0 10 5 10 10 0 6 -4 10 -10 10 -5 0
-10 -4 -10 -10z"/>
<path d="M8786 4034 c-3 -9 -6 -17 -6 -18 0 -2 14 -2 31 -1 31 2 58 27 38 34
-6 2 -15 -3 -20 -10 -6 -10 -9 -11 -9 -1 0 18 -27 15 -34 -4z"/>
<path d="M8830 3984 c0 -8 5 -12 10 -9 6 3 10 10 10 16 0 5 -4 9 -10 9 -5 0
-10 -7 -10 -16z"/>
<path d="M8565 3940 c-3 -5 -1 -10 4 -10 6 0 11 5 11 10 0 6 -2 10 -4 10 -3 0
-8 -4 -11 -10z"/>
<path d="M6114 4853 c-3 -10 -10 -26 -15 -35 -10 -20 -1 -51 13 -42 5 3 8 13
7 22 -3 30 1 35 16 22 12 -10 16 -9 21 4 9 22 -2 46 -21 46 -9 0 -18 -8 -21
-17z"/>
<path d="M6090 3629 c0 -5 5 -7 10 -4 6 3 10 8 10 11 0 2 -4 4 -10 4 -5 0 -10
-5 -10 -11z"/>
<path d="M4553 1684 c-26 -27 -5 -63 43 -78 17 -5 20 -2 19 16 -1 13 -9 24
-18 26 -9 2 -19 14 -24 27 -7 19 -10 21 -20 9z"/>
<path d="M5470 1201 c0 -5 9 -7 20 -4 11 3 20 7 20 9 0 2 -9 4 -20 4 -11 0
-20 -4 -20 -9z"/>
<path d="M1740 7124 c-36 -7 -72 -16 -80 -20 -39 -15 71 -40 163 -37 97 2 127
6 127 15 0 5 4 7 9 4 5 -3 14 1 21 9 7 8 16 12 21 9 5 -3 9 2 9 12 0 14 -2 14
-16 3 -13 -10 -17 -10 -24 0 -4 8 -13 10 -20 6 -8 -5 -11 -4 -7 2 10 16 -128
14 -203 -3z"/>
<path d="M4000 6280 c-36 -5 -101 -13 -145 -19 -44 -6 -105 -15 -135 -21 -30
-5 -93 -15 -140 -20 -47 -6 -118 -17 -157 -25 -40 -8 -76 -15 -80 -14 -23 4
-43 -3 -67 -22 l-28 -22 46 -46 c25 -26 46 -51 46 -57 0 -6 10 -20 23 -31 26
-24 130 -30 184 -11 26 9 37 9 57 -2 31 -16 107 -7 150 19 17 10 58 23 91 30
33 6 95 18 137 26 42 8 92 15 110 15 18 0 105 18 193 40 195 49 238 75 203
123 -11 14 -36 20 -128 27 -216 16 -295 19 -360 10z"/>
<path d="M7 4093 c-4 -3 -7 -259 -7 -567 0 -313 4 -554 9 -546 5 8 23 58 40
110 17 52 36 104 41 115 5 11 16 45 26 75 9 30 25 71 35 90 9 20 20 52 24 71
4 20 24 59 46 88 21 28 39 58 39 67 0 8 5 12 10 9 6 -3 10 -2 10 4 0 7 8 7 25
1 26 -10 152 -3 445 25 85 8 163 15 173 15 24 0 21 -19 -9 -63 -52 -77 -113
-289 -253 -872 -17 -71 -40 -161 -50 -200 -10 -38 -33 -133 -51 -210 -18 -77
-44 -185 -57 -240 -32 -127 -39 -158 -54 -220 -6 -27 -22 -95 -35 -150 -21
-94 -31 -143 -37 -190 -1 -11 -5 -22 -8 -25 -7 -5 -39 -128 -39 -148 0 -7 4
-12 8 -12 7 0 27 59 36 105 2 11 14 56 25 100 12 44 24 94 27 110 12 61 32 94
61 100 15 3 46 15 68 25 l40 19 -50 -5 c-56 -5 -88 7 -67 28 6 6 12 20 12 30
0 11 7 18 19 18 11 0 22 6 24 13 4 8 11 5 24 -11 23 -28 53 -20 53 13 0 42
-38 115 -65 125 -30 11 -30 9 -4 73 27 67 36 90 39 102 16 57 40 110 49 107 6
-1 11 3 11 9 0 7 12 -5 26 -26 14 -21 32 -44 40 -52 8 -8 14 -20 14 -27 0 -8
7 -19 15 -26 14 -11 15 -8 11 24 -6 48 1 66 26 66 10 0 17 -4 14 -9 -7 -11 56
-23 78 -15 11 4 16 2 14 -7 -2 -8 3 -13 11 -11 7 1 20 -3 29 -10 13 -11 15
-11 7 2 -6 12 -5 12 5 3 7 -6 19 -9 26 -6 8 3 14 -1 14 -11 0 -11 10 -16 33
-17 29 -1 28 -2 -10 -8 -24 -4 -44 -9 -46 -12 -39 -51 -47 -67 -47 -92 l0 -31
20 22 c12 12 25 22 30 22 12 0 40 -59 40 -87 0 -22 4 -25 39 -27 8 -1 16 -6
18 -13 3 -7 -20 -18 -54 -28 -32 -9 -66 -18 -75 -21 -11 -3 -18 -15 -18 -29 0
-30 30 -35 120 -18 94 18 108 17 112 -9 4 -28 21 -33 42 -12 13 12 15 27 11
67 -3 28 -11 57 -17 64 -6 8 -8 17 -3 21 4 4 20 -9 36 -28 75 -89 104 -221 57
-254 -41 -29 -120 -12 -199 45 -45 32 -34 5 15 -38 44 -38 101 -63 146 -63 71
0 122 90 101 178 -17 69 -52 153 -78 188 -13 17 -23 36 -23 42 0 7 -4 12 -10
12 -5 0 -10 7 -10 16 0 8 -4 13 -8 10 -4 -2 -13 4 -20 14 -9 15 -9 22 3 34 16
16 20 31 7 22 -5 -3 -9 10 -9 29 0 24 6 37 21 45 12 6 14 9 4 6 -12 -4 -15 -1
-11 10 3 8 12 13 19 10 8 -3 14 -1 14 5 0 6 4 8 10 4 5 -3 6 -13 3 -22 -4 -11
-3 -14 5 -9 7 4 12 2 12 -4 0 -6 5 -8 10 -5 6 4 9 18 7 33 -3 19 3 32 20 45
13 10 23 25 23 34 0 13 3 13 15 3 13 -11 14 -10 9 5 -6 14 -3 16 16 10 14 -4
20 -3 16 3 -3 5 1 12 9 15 10 4 12 1 8 -10 -4 -11 -2 -14 5 -9 7 4 12 13 12
20 0 8 16 17 35 20 21 4 35 13 35 21 0 8 6 14 13 13 7 -2 11 5 9 16 -3 14 1
17 12 13 9 -4 17 -2 17 3 1 6 2 15 3 22 2 19 26 21 26 2 0 -21 13 -10 16 14 2
9 -2 20 -9 24 -8 5 -4 8 10 8 16 0 21 4 17 15 -4 8 -1 15 5 15 6 0 11 11 11
24 0 27 26 82 37 79 5 0 15 3 23 8 13 7 13 8 0 9 -10 0 -11 3 -4 8 13 9 25 52
14 52 -12 0 -20 44 -10 54 14 14 12 29 -1 20 -8 -5 -10 3 -7 24 3 24 2 29 -8
21 -8 -7 -14 -7 -19 1 -3 5 -1 10 6 10 10 0 10 3 2 11 -14 14 -5 41 11 32 6
-4 5 1 -3 10 -7 9 -17 14 -22 11 -5 -3 -9 7 -9 21 0 17 -4 24 -12 19 -8 -5 -9
-2 -5 9 3 10 2 17 -3 17 -6 0 -10 7 -10 15 0 8 -4 15 -9 15 -5 0 -8 11 -6 25
2 19 -3 27 -21 31 -14 4 -21 11 -17 20 3 8 0 14 -7 14 -8 0 -11 9 -7 26 3 18
1 24 -9 20 -7 -3 -16 -1 -19 4 -4 6 -1 10 4 10 6 0 11 5 11 10 0 6 -5 9 -12 8
-7 -2 -12 3 -13 10 0 8 -14 25 -30 38 -16 13 -25 24 -18 24 20 0 8 30 -25 60
-18 16 -32 38 -32 49 0 12 -6 21 -14 21 -8 0 -18 5 -22 12 -5 7 -2 9 8 6 11
-5 14 -1 10 17 -3 16 -9 22 -18 18 -9 -3 -14 0 -12 8 2 8 -3 13 -9 12 -7 -2
-15 8 -19 22 -3 14 -10 23 -14 20 -4 -3 -10 4 -13 14 -2 11 -15 21 -28 23 -13
2 -23 9 -21 16 1 8 -2 11 -8 7 -5 -3 -13 1 -16 9 -3 9 -12 16 -19 16 -7 0 -18
6 -24 14 -7 8 -21 12 -33 8 -13 -3 -24 1 -30 12 -6 11 -18 15 -35 12 -19 -4
-31 1 -45 20 -19 24 -24 25 -126 23 -59 -1 -136 -5 -172 -9 -36 -5 -119 -11
-185 -15 -66 -4 -149 -8 -184 -11 -58 -3 -62 -2 -45 11 10 9 13 14 6 13 -8 -2
-19 4 -25 13 -8 13 -7 21 6 34 24 24 21 28 -8 9 -13 -8 -29 -13 -35 -9 -13 8
-13 35 0 35 5 0 7 -7 4 -15 -4 -8 -1 -15 6 -15 8 0 10 8 6 23 -3 12 -6 27 -6
33 0 6 -11 10 -23 9 -21 -3 -23 1 -19 24 4 25 4 25 -11 6 -14 -18 -15 -18 -12
9 3 20 0 26 -10 22 -8 -3 -17 -1 -20 4 -4 6 -1 10 6 10 7 0 4 8 -7 18 -24 21
-44 57 -44 76 0 14 -35 32 -52 28 -4 -1 -13 8 -19 20 -9 16 -9 23 0 26 17 6
13 20 -5 18 -20 -1 -28 35 -11 46 8 5 8 8 1 8 -6 0 -14 -3 -17 -7z m63 -133
c0 -5 -2 -10 -4 -10 -3 0 -8 5 -11 10 -3 6 -1 10 4 10 6 0 11 -4 11 -10z m25
1 c3 -5 2 -12 -3 -15 -5 -3 -9 1 -9 9 0 17 3 19 12 6z m1375 -755 c0 -3 -4 -8
-10 -11 -5 -3 -10 -1 -10 4 0 6 5 11 10 11 6 0 10 -2 10 -4z m-317 -1041 c-3
-9 -8 -14 -10 -11 -3 3 -2 9 2 15 9 16 15 13 8 -4z"/>
<path d="M10140 4078 c-45 -56 -103 -133 -136 -183 -56 -83 -57 -86 -42 -79
17 7 208 251 208 266 0 12 -18 10 -30 -4z"/>
<path d="M46 4007 c3 -10 9 -15 12 -12 3 3 0 11 -7 18 -10 9 -11 8 -5 -6z"/>
<path d="M75 4000 c-3 -5 -1 -10 4 -10 6 0 11 5 11 10 0 6 -2 10 -4 10 -3 0
-8 -4 -11 -10z"/>
<path d="M120 3936 c0 -2 7 -9 15 -16 9 -7 15 -8 15 -2 0 5 -7 12 -15 16 -8 3
-15 4 -15 2z"/>
<path d="M10795 3700 c-50 -7 -49 -7 17 -7 37 0 65 3 62 8 -3 5 -11 8 -17 7
-7 0 -34 -4 -62 -8z"/>
<path d="M10809 3590 c-76 -23 -298 -170 -299 -198 0 -7 22 2 53 21 135 87
166 106 222 137 88 48 97 62 24 40z"/>
<path d="M10325 3546 c-101 -69 -183 -176 -259 -339 -26 -54 -46 -102 -46
-107 0 -5 -13 -52 -30 -103 -35 -111 -38 -179 -9 -257 46 -127 56 -182 34
-204 -16 -15 -45 -12 -45 5 0 5 -4 9 -10 9 -5 0 -10 -9 -10 -20 0 -11 -5 -20
-11 -20 -5 0 -8 -4 -5 -9 4 -5 1 -11 -6 -13 -7 -3 -13 -16 -13 -31 -1 -14 -6
-32 -11 -39 -6 -7 -15 -30 -21 -50 -10 -33 -9 -38 5 -38 10 0 30 7 46 15 32
17 66 20 66 6 0 -14 -22 -26 -42 -23 -20 4 -22 -6 -8 -28 5 -8 10 -10 10 -4 0
18 38 24 44 8 11 -29 25 -11 65 85 41 99 41 101 41 225 0 74 -4 126 -10 126
-5 0 -7 27 -3 68 l6 67 -22 -24 -21 -24 0 71 c0 151 95 362 263 585 32 43 57
82 55 87 -2 6 -26 -5 -53 -24z"/>
<path d="M9521 3279 c-13 -10 -19 -19 -14 -19 13 0 49 27 43 33 -3 3 -16 -3
-29 -14z"/>
<path d="M9570 3275 c-13 -14 -21 -27 -18 -31 3 -3 16 9 28 25 26 37 22 40
-10 6z"/>
<path d="M12595 3199 c6 -9 1 -10 -18 -7 -16 3 -31 0 -38 -8 -6 -8 -15 -11
-20 -8 -5 3 -12 -2 -15 -10 -3 -9 -10 -13 -15 -10 -5 3 -9 1 -9 -5 0 -5 5 -13
10 -16 6 -4 8 -11 5 -16 -4 -5 -1 -9 4 -9 6 0 11 9 11 21 0 16 4 19 18 14 9
-4 23 -8 30 -8 7 0 -5 -17 -25 -37 -27 -27 -42 -34 -50 -27 -9 6 -13 6 -13 -1
0 -6 4 -12 10 -14 5 -1 11 -13 13 -25 3 -24 17 -44 17 -26 0 6 9 9 19 6 18 -5
26 -43 9 -43 -4 0 -5 -7 -2 -15 4 -8 10 -12 15 -9 6 3 16 0 24 -6 8 -6 19 -9
24 -5 6 3 18 -3 28 -14 10 -12 20 -16 23 -10 10 14 34 2 45 -24 6 -13 17 -21
28 -19 9 2 25 -2 35 -7 9 -6 12 -11 5 -11 -11 0 -12 -44 0 -56 3 -3 4 5 3 19
-2 19 1 23 15 20 17 -5 19 5 18 161 -1 137 -4 166 -16 166 -9 0 -11 5 -7 13 6
9 4 9 -7 2 -16 -12 -56 -12 -82 0 -13 5 -15 10 -7 15 8 5 7 9 -4 13 -10 4 -17
-1 -22 -15 -3 -11 -9 -17 -13 -12 -11 15 -54 37 -46 23z m-41 -33 c-3 -9 -10
-13 -15 -10 -5 3 -3 11 4 19 15 16 19 13 11 -9z m-33 -129 c-8 -8 -11 -7 -11
4 0 20 13 34 18 19 3 -7 -1 -17 -7 -23z m69 -21 c0 -2 -7 -7 -16 -10 -8 -3
-12 -2 -9 4 6 10 25 14 25 6z m-12 -47 c19 -30 11 -32 -11 -3 -10 13 -14 24
-10 24 5 0 14 -9 21 -21z"/>
<path d="M8202 3013 c-22 -55 -32 -119 -31 -213 1 -131 17 -174 18 -50 1 52
10 136 20 185 19 89 14 132 -7 78z"/>
<path d="M9297 2960 c-12 -20 -18 -53 -19 -102 -1 -40 -7 -87 -15 -105 -19
-46 -15 -65 4 -23 9 19 19 69 23 110 3 41 14 90 23 109 19 39 20 41 9 41 -4 0
-16 -13 -25 -30z"/>
<path d="M12655 2860 c-3 -5 -1 -10 4 -10 6 0 11 5 11 10 0 6 -2 10 -4 10 -3
0 -8 -4 -11 -10z"/>
<path d="M8021 2844 c0 -11 3 -14 6 -6 3 7 2 16 -1 19 -3 4 -6 -2 -5 -13z"/>
<path d="M12785 2810 c-3 -5 -1 -10 4 -10 6 0 11 5 11 10 0 6 -2 10 -4 10 -3
0 -8 -4 -11 -10z"/>
<path d="M8116 2705 c3 -27 19 -82 35 -122 45 -113 50 -180 11 -141 -7 7 -12
8 -12 2 0 -15 45 -55 53 -47 19 19 5 108 -32 200 -21 54 -44 112 -50 128 -10
27 -10 25 -5 -20z"/>
<path d="M10150 2685 c-11 -26 -20 -54 -20 -63 1 -25 35 22 48 65 16 52 -6 50
-28 -2z"/>
<path d="M7911 2663 c-2 -27 52 -150 79 -183 27 -32 26 -27 -14 55 -25 50 -49
101 -55 115 -5 14 -10 20 -10 13z"/>
<path d="M9216 2590 c-9 -22 -16 -65 -16 -94 0 -30 -7 -91 -16 -137 -9 -46
-16 -91 -16 -99 0 -8 -4 -37 -8 -65 -5 -27 -12 -79 -15 -115 -3 -36 -9 -114
-14 -175 -6 -68 -6 -142 0 -195 6 -47 7 -95 4 -107 -3 -12 -1 -25 5 -28 13 -8
13 -52 0 -60 -15 -9 -12 -25 5 -25 8 0 16 -6 16 -12 1 -7 2 -30 3 -50 1 -21 5
-41 9 -44 4 -4 7 -12 7 -18 0 -6 -5 -5 -12 2 -14 14 -28 16 -28 3 0 -5 12 -12
27 -16 37 -9 43 -20 43 -81 0 -35 5 -54 14 -57 10 -4 13 -17 9 -46 -4 -26 -2
-41 5 -41 14 0 26 63 18 94 -3 14 -2 28 4 31 5 3 10 0 11 -7 1 -21 69 -72 80
-61 7 7 -5 32 -36 77 -59 84 -93 147 -88 164 3 6 0 12 -7 12 -7 0 -9 -13 -5
-37 4 -34 3 -32 -15 16 -29 78 -57 343 -48 466 9 147 25 288 43 390 16 84 45
346 40 353 -1 2 -10 -15 -19 -38z"/>
<path d="M9940 2575 c-9 -11 -8 -14 9 -12 22 1 28 12 12 21 -5 3 -14 -1 -21
-9z"/>
<path d="M1536 2423 c-6 -14 -5 -15 5 -6 7 7 10 15 7 18 -3 3 -9 -2 -12 -12z"/>
<path d="M8056 2425 c-6 -16 135 -177 146 -166 13 12 -4 120 -20 126 -23 9
-27 -3 -9 -23 10 -10 17 -22 17 -26 0 -13 -36 13 -82 58 -33 33 -48 41 -52 31z"/>
<path d="M1422 2350 c0 -14 2 -19 5 -12 2 6 2 18 0 25 -3 6 -5 1 -5 -13z"/>
<path d="M9911 2151 c-8 -5 -16 -18 -17 -28 -3 -16 -1 -16 12 2 8 11 19 20 24
20 4 0 12 3 16 8 10 10 -18 9 -35 -2z"/>
<path d="M10810 2145 c0 -9 6 -12 15 -9 8 4 15 10 15 15 0 5 -7 9 -15 9 -8 0
-15 -7 -15 -15z"/>
<path d="M9870 2000 c-8 -6 -11 -10 -6 -10 5 0 3 -6 -3 -14 -10 -11 -7 -14 14
-12 25 1 31 11 17 33 -5 8 -13 9 -22 3z"/>
<path d="M7663 1980 c-7 -16 -7 -31 -1 -43 5 -10 7 -21 5 -24 -7 -7 28 -102
43 -116 10 -10 11 -7 5 13 -4 14 -15 63 -24 110 -16 75 -19 82 -28 60z"/>
<path d="M9830 1983 c-20 -8 -50 -34 -50 -45 0 -13 57 19 63 37 4 8 5 15 4 14
-1 0 -9 -3 -17 -6z"/>
<path d="M9870 1940 c0 -5 5 -10 10 -10 6 0 10 5 10 10 0 6 -4 10 -10 10 -5 0
-10 -4 -10 -10z"/>
<path d="M9770 1839 c0 -5 5 -7 10 -4 6 3 10 8 10 11 0 2 -4 4 -10 4 -5 0 -10
-5 -10 -11z"/>
<path d="M7 1773 c-4 -3 -7 -18 -7 -32 l1 -26 19 24 c11 12 17 27 14 32 -6 11
-18 12 -27 2z"/>
<path d="M10740 1692 c0 -18 12 -42 21 -42 14 0 11 20 -6 36 -8 9 -15 11 -15
6z"/>
<path d="M9886 1680 c-33 -10 -76 -48 -76 -67 0 -17 10 -17 35 0 11 8 44 22
73 33 72 25 88 44 36 43 -22 0 -52 -5 -68 -9z"/>
<path d="M9780 1650 c0 -5 5 -10 10 -10 6 0 10 5 10 10 0 6 -4 10 -10 10 -5 0
-10 -4 -10 -10z"/>
<path d="M9773 1608 c-6 -13 -14 -32 -17 -43 -5 -18 -4 -17 14 4 11 13 20 32
20 42 0 25 -4 24 -17 -3z"/>
<path d="M7280 1590 c0 -5 5 -10 11 -10 5 0 7 5 4 10 -3 6 -8 10 -11 10 -2 0
-4 -4 -4 -10z"/>
<path d="M9050 1528 c0 -4 6 -8 14 -8 8 0 17 4 20 8 2 4 -4 8 -15 8 -10 0 -19
-4 -19 -8z"/>
<path d="M9842 1501 c-19 -5 -39 -14 -45 -21 -9 -10 -8 -12 6 -6 49 17 72 17
135 1 38 -9 88 -15 113 -13 l44 3 -25 17 c-30 20 -176 32 -228 19z"/>
<path d="M9801 1445 c-18 -8 -41 -15 -50 -15 -17 0 -61 -39 -61 -53 0 -10 72
-9 106 2 16 5 41 12 56 15 34 8 57 44 37 57 -20 12 -49 10 -88 -6z"/>
<path d="M1325 1440 c-9 -15 14 -40 36 -40 20 0 23 8 13 34 -7 18 -39 22 -49
6z"/>
<path d="M9910 1327 c0 -9 157 -85 208 -101 28 -8 60 -19 71 -26 30 -16 26 5
-5 27 -14 10 -37 29 -52 41 -15 13 -43 30 -62 38 -35 15 -160 32 -160 21z"/>
<path d="M9168 1249 c-15 -16 -23 -29 -18 -29 11 0 50 41 50 52 0 11 -1 10
-32 -23z"/>
<path d="M6490 1199 c0 -6 9 -28 20 -48 10 -20 33 -66 49 -103 16 -38 33 -68
38 -68 4 0 13 11 19 24 10 22 7 30 -32 74 -24 28 -44 54 -44 60 0 5 -7 23 -16
40 -15 31 -34 43 -34 21z"/>
<path d="M276 1112 c-5 -8 -20 -68 -32 -126 -2 -10 -11 -44 -20 -75 -10 -31
-17 -59 -16 -63 3 -13 -39 -56 -51 -54 -7 2 -25 8 -42 15 -16 7 -31 11 -31 9
-1 -2 -11 6 -23 16 -12 11 -24 16 -28 13 -3 -4 -12 -2 -20 4 -11 10 -13 -8
-13 -102 l0 -114 28 -1 c36 -1 70 -9 78 -17 4 -4 19 -7 34 -7 21 0 30 -8 44
-40 10 -22 22 -38 27 -35 5 4 9 -4 9 -15 0 -15 5 -20 14 -17 8 3 19 -5 26 -18
7 -14 18 -21 23 -18 6 4 8 0 4 -9 -4 -11 2 -18 19 -22 13 -4 24 -11 24 -17 0
-5 10 -14 23 -20 18 -8 16 -8 -13 -4 -73 13 -101 23 -130 49 -16 14 -51 27
-95 35 -38 7 -80 15 -92 18 -23 5 -23 4 -23 -100 l0 -105 39 -7 c57 -10 289
-22 341 -18 25 1 128 9 230 17 102 8 244 18 315 21 72 4 141 9 155 10 14 2
115 6 225 10 110 3 236 10 280 16 44 5 83 9 87 9 5 0 8 4 8 10 0 6 -74 9 -200
7 -128 -1 -200 2 -200 8 0 6 -3 5 -8 -1 -8 -13 -42 -15 -42 -2 0 4 -19 8 -42
8 -41 0 -145 14 -198 25 -14 3 -37 6 -52 7 -16 1 -28 5 -28 11 0 5 20 7 45 5
25 -2 45 0 45 4 0 8 -19 12 -47 11 -7 -1 -10 3 -7 8 3 5 -10 9 -28 8 -18 -1
-46 2 -63 5 -16 3 -51 6 -77 7 -27 1 -48 5 -48 8 0 4 -16 6 -35 6 -19 -1 -31
3 -28 8 3 5 -10 7 -31 4 -20 -3 -36 -1 -36 3 0 12 -33 18 -170 30 -155 14
-171 17 -183 29 -6 6 -12 53 -14 104 l-4 95 43 -8 c24 -5 117 -13 208 -20 91
-6 264 -20 385 -30 531 -47 601 -51 708 -45 98 7 107 9 107 27 0 18 -4 20 -40
14 -23 -3 -49 -2 -60 4 -10 5 -157 17 -327 25 -318 15 -337 17 -715 66 -125
16 -243 29 -263 29 -36 0 -36 1 -30 33 13 67 29 72 256 86 219 13 253 17 245
30 -14 22 -153 21 -420 -5 -65 -7 -69 -6 -64 12 3 10 7 26 9 34 2 8 9 20 16
27 13 14 15 83 3 83 -5 0 -11 -4 -14 -8z m1297 -429 c-7 -2 -21 -2 -30 0 -10
3 -4 5 12 5 17 0 24 -2 18 -5z m-1143 -207 c0 -3 -4 -8 -10 -11 -5 -3 -10 -1
-10 4 0 6 5 11 10 11 6 0 10 -2 10 -4z m123 -23 c-7 -2 -19 -2 -25 0 -7 3 -2
5 12 5 14 0 19 -2 13 -5z"/>
<path d="M9945 1061 c-3 -5 8 -19 23 -30 16 -11 41 -38 56 -60 15 -22 34 -42
42 -45 19 -7 44 3 44 19 0 18 -52 75 -68 75 -8 0 -27 11 -44 25 -32 27 -44 30
-53 16z"/>
<path d="M9095 990 c-47 -7 -85 -19 -194 -57 -24 -9 -72 -37 -108 -64 -76 -58
-109 -76 -173 -95 -41 -12 -90 -48 -79 -58 5 -4 98 7 195 23 55 10 88 23 140
57 38 24 98 56 134 71 119 51 185 90 188 112 4 23 -10 25 -103 11z"/>
<path d="M2385 763 c-55 -5 -188 -34 -182 -40 3 -2 24 1 47 7 23 6 96 17 163
24 106 12 83 19 -28 9z"/>
<path d="M2600 747 c30 -7 65 -18 77 -25 12 -7 25 -12 30 -12 26 2 -75 41
-114 45 l-48 5 55 -13z"/>
<path d="M7439 723 c10 -20 12 -73 2 -70 -15 4 -71 -13 -71 -22 0 -14 71 -32
112 -29 47 2 59 14 46 44 -8 18 -14 21 -24 13 -9 -7 -14 -5 -19 10 -3 12 -3
25 0 31 8 13 -19 40 -40 40 -12 0 -13 -4 -6 -17z"/>
<path d="M9185 730 c-11 -17 5 -31 19 -17 14 12 12 27 -4 27 -5 0 -12 -4 -15
-10z"/>
<path d="M2075 675 c-38 -18 -63 -33 -55 -34 8 0 44 15 80 34 84 44 66 44 -25
0z"/>
<path d="M2535 689 c-55 -4 -174 -13 -265 -20 -195 -14 -245 -27 -115 -30 50
-1 106 -3 125 -4 19 -1 110 -5 202 -10 161 -8 242 -1 173 15 l-30 7 28 11 c26
11 38 32 18 32 -5 0 -15 2 -23 4 -7 2 -58 0 -113 -5z"/>
<path d="M7555 689 c-4 -6 -4 -13 -1 -16 8 -8 36 5 36 17 0 13 -27 13 -35 -1z"/>
<path d="M1587 573 c-4 -3 -7 -16 -7 -29 0 -25 10 -26 215 -39 145 -9 233 -16
345 -26 58 -6 173 -16 255 -24 83 -8 195 -19 250 -24 213 -22 366 -31 613 -35
277 -5 285 -4 87 19 -71 8 -186 21 -255 29 -227 26 -431 46 -740 71 -168 14
-404 34 -525 45 -260 23 -230 21 -238 13z"/>
<path d="M1580 492 c0 -13 38 -19 200 -32 194 -15 321 -30 333 -37 6 -3 -10
-12 -34 -19 -24 -7 -66 -19 -94 -28 l-50 -16 88 5 c87 4 123 17 111 37 -8 13
107 6 531 -33 287 -26 599 -49 664 -49 93 0 -118 26 -534 65 -82 8 -190 19
-240 24 -130 14 -442 39 -570 46 -121 6 -385 34 -397 41 -5 3 -8 1 -8 -4z"/>
<path d="M240 469 c0 -5 5 -7 10 -4 6 3 10 8 10 11 0 2 -4 4 -10 4 -5 0 -10
-5 -10 -11z"/>
<path d="M8440 468 c0 -9 5 -20 10 -23 13 -8 13 5 0 25 -8 13 -10 13 -10 -2z"/>
<path d="M4918 379 c-6 -4 -150 -5 -320 -2 -220 4 -312 3 -321 -5 -8 -7 -20
-29 -27 -51 -13 -41 -33 -51 -101 -51 -16 0 -29 -4 -29 -10 0 -12 130 -4 255
15 50 8 169 21 265 30 97 8 220 22 275 30 54 8 104 15 112 15 13 0 19 30 6 31
-69 4 -106 4 -115 -2z"/>
</g>
</svg>
